<?xml version="1.0" standalone="no"?>
<!DOCTYPE svg PUBLIC "-//W3C//DTD SVG 1.1//EN" "http://www.w3.org/Graphics/SVG/1.1/DTD/svg11.dtd" >
<svg xmlns="http://www.w3.org/2000/svg">
<metadata>Generated by IcoMoon</metadata>
<defs>
<font id="icomoon" horiz-adv-x="1024">
<font-face units-per-em="1024" ascent="960" descent="-64" />
<missing-glyph horiz-adv-x="1024" />
<glyph unicode="&#x20;" d="" horiz-adv-x="512" />
<glyph unicode="&#x21;" d="M512 704c9.216 0 30.784 0 32-32h-96c0 21.248 10.752 32 32 32h32zM512 768c-32 0 0 0-32 0-96 0-96-96-96-96h-32c0 0-96 0-96-64h480c0 64-96 64-96 64h-32c0 0 0 96-96 96v0zM640 576v-320h-288v320h-64v-320c0-32 32-64 64-64h288c32 0 64 32 64 64v320h-64zM544 576v-256c0-8.896 7.168-16 16-16s16 7.104 16 16v256h-32zM480 320c0-8.896 7.168-16 16-16s16 7.104 16 16v256h-32v-256zM416 320c0-8.896 7.168-16 16-16s16 7.104 16 16v256h-32v-256z" />
<glyph unicode="&#x22;" d="M512 704c9.216 0 30.784 0 32-32h-96c0 21.248 10.752 32 32 32h32zM512 768c-32 0 0 0-32 0-96 0-96-96-96-96h-32c0 0-96 0-96-64h480c0 64-96 64-96 64h-32c0 0 0 96-96 96v0zM640 576v-320h-288v320h-64v-320c0-32 32-64 64-64h288c32 0 64 32 64 64v320h-64z" />
<glyph unicode="&#x23;" d="M736 704c-17.664 0-32-14.336-32-32v-82.752l-3.264-3.264c-1.472 3.136-3.2 6.272-5.76 8.896-48.576 49.728-113.6 77.12-182.976 77.12-141.184 0-256-114.816-256-256s114.816-256 256-256c83.008 0 161.216 40.64 209.216 108.736 10.176 14.464 6.72 34.432-7.744 44.608-14.464 10.112-34.432 6.656-44.608-7.744-36.032-51.072-94.656-81.6-156.864-81.6-105.856 0-192 86.144-192 192s86.144 192 192 192c52.032 0 100.736-20.544 137.216-57.856 2.624-2.688 5.76-4.544 8.96-6.144h-82.176c-17.664 0-32-14.336-32-32s14.336-32 32-32h160c17.664 0 32 14.336 32 32v160c0 17.664-14.336 32-32 32z" />
<glyph unicode="&#x24;" d="M256 256h336c8.896 0 16 7.168 16 16s-7.104 16-16 16h-336v-32zM592 192c8.896 0 16 7.168 16 16s-7.104 16-16 16h-336v-32h336zM656 320c8.896 0 16 7.168 16 16s-7.104 16-16 16h-400v-32h400zM832 224h-64v-64h-64v64h-64v64h64v64h64v-64h64v-64zM704 768h-384c-35.264 0-64-28.736-64-64v-256c0-35.264 28.736-64 64-64h384c35.264 0 64 28.736 64 64v256c0 35.264-28.736 64-64 64zM704 448h-384v256h384v-256z" />
<glyph unicode="&#x25;" d="M825.984 658.688c-6.016 8.384-15.68 13.312-25.984 13.312h-384c-17.664 0-32-14.336-32-32s14.336-32 32-32h339.584l-10.624-32h-316.8c-8.896 0-16-7.168-16-16s7.104-16 16-16h306.112l-10.688-32h-275.84c-8.896 0-16-7.168-16-16s7.168-16 16.064-16h265.152l-10.688-32h-231.232c-8.832 0-16-7.168-16-16s7.168-16 16-16h220.544l-10.624-32h-273.92l-120.704 362.112c-4.352 13.056-16.576 21.888-30.336 21.888h-96c-17.664 0-32-14.336-32-32s14.336-32 32-32h72.96l117.76-353.28-29.76-118.976c-2.368-9.536-0.256-19.712 5.824-27.456 4.992-6.4 12.352-9.856 20.16-11.136-1.792-5.44-2.944-11.136-2.944-17.152 0-30.912 25.088-56 56-56s56 25.088 56 56c0 5.632-1.088 10.88-2.624 16h109.184c-1.536-5.12-2.624-10.368-2.624-16 0-30.912 25.088-56 56-56s56 25.088 56 56c0 5.632-1.088 10.88-2.624 16h2.688c17.664 0 32 14.336 32 32s-14.336 32-32 32h-279.040l16 64h295.040c13.76 0 25.984 8.832 30.336 21.888l96 288c3.264 9.728 1.664 20.48-4.352 28.8z" />
<glyph unicode="&#x26;" d="M825.984 594.688c-6.016 8.384-15.68 13.312-25.984 13.312h-384c-17.664 0-32-14.336-32-32s14.336-32 32-32h339.584l-74.624-224h-273.92l-120.704 362.112c-4.352 13.056-16.576 21.888-30.336 21.888h-96c-17.664 0-32-14.336-32-32s14.336-32 32-32h72.96l117.76-353.28-29.76-118.976c-2.368-9.536-0.256-19.712 5.824-27.456 4.992-6.4 12.352-9.856 20.16-11.136-1.792-5.44-2.944-11.136-2.944-17.152 0-30.912 25.088-56 56-56s56 25.088 56 56c0 5.632-1.088 10.88-2.624 16h109.184c-1.536-5.12-2.624-10.368-2.624-16 0-30.912 25.088-56 56-56s56 25.088 56 56c0 5.632-1.088 10.88-2.624 16h2.688c17.664 0 32 14.336 32 32s-14.336 32-32 32h-279.040l16 64h295.040c13.76 0 25.984 8.832 30.336 21.888l96 288c3.264 9.728 1.664 20.48-4.352 28.8z" />
<glyph unicode="&#x27;" d="M502.656 547.904c12.48-12.48 12.48-32.768 0-45.248s-32.768-12.48-45.248 0l-73.408 73.344v-306.752c0-17.664-14.336-32-32-32s-32 14.336-32 32v306.752l-73.344-73.344c-12.48-12.48-32.768-12.48-45.248 0s-12.48 32.768 0 45.248l128 128c6.208 6.208 14.4 9.344 22.592 9.344s16.384-3.136 22.656-9.344l128-128zM649.344 214.656c6.272-6.272 14.464-9.344 22.656-9.344s16.384 3.136 22.656 9.344l128 128c12.48 12.48 12.48 32.768 0 45.248s-32.768 12.48-45.248 0l-73.408-73.408v306.752c0 17.664-14.336 32-32 32s-32-14.336-32-32v-306.752l-73.344 73.408c-12.48 12.48-32.768 12.48-45.248 0s-12.48-32.768 0-45.248l127.936-128z" />
<glyph unicode="&#x28;" d="M749.184 303.872c-22.848-22.656-49.92-39.424-79.36-50.112-9.216-3.264-18.816-5.824-28.416-8.064-14.208-2.944-29.056-7.36-43.968-7.68h-3.904c-51.968 0-100.8 19.968-140.224 51.648-5.568 4.544-10.816 9.024-15.808 14.208l-10.944 10.368-25.152 24.576-67.392 65.984c-9.664 9.664-9.664 25.216 0 34.56 4.992 4.864 11.584 7.424 17.856 7.424 6.336 0 12.864-2.624 17.856-7.424l103.104-100.864c9.664-9.408 20.16-17.536 31.424-24.256 26.432-16.128 57.216-24.576 89.28-24.576 14.144 0 28.416 1.6 41.92 5.184 8.256 1.92 16.576 4.864 24.512 8.128 19.776 8.064 38.272 20.032 53.888 35.584 66.432 64.96 66.432 170.688 0 235.712-33.088 32.32-76.736 48.832-120.32 48.832-33.408 0-66.432-9.408-95.232-28.48-14.528 11.008-30.080 20.032-46.272 27.136 40.64 33.6 90.944 53.248 141.504 53.248 56.192 0 112.704-24.192 155.648-66.176 86.272-84.096 86.272-220.864 0-304.96zM357.824 241.152c-47.936 0-93.184 18.432-126.912 51.392-70.4 68.544-70.4 179.776 0 248.384 33.728 32.96 78.592 51.392 126.208 51.392h0.704c8.96 0 17.856-0.704 26.752-1.92 9.28-1.28 18.56-3.264 27.456-6.144 16.832-5.184 33.024-12.992 47.616-22.976 6.912-4.544 13.504-9.728 19.84-15.168l5.568-5.184 12.224-12.352 59.84-58.496c9.92-9.344 9.92-24.896 0-34.624-4.928-4.864-11.2-7.104-17.472-7.104-6.592 0-12.864 2.24-17.856 7.168l-73.088 71.424-5.952 5.504c-17.536 14.528-38.4 24.576-60.8 28.736-7.936 1.28-15.872 1.92-24.128 1.92h-3.712c-33.344-0.896-64.384-13.824-87.872-37.12-50.56-49.152-50.56-129.024 0-178.432 24.448-23.936 57.216-37.184 91.584-37.184h22.848l21.12-20.032c10.944-10.688 22.464-20.736 34.368-29.12l-78.336-0.064zM784.896 643.712c-51.264 49.792-119.040 77.248-191.36 77.248-72.384 0-140.48-27.52-191.744-77.248l-5.312-5.504c-12.544 2.304-25.472 3.264-38.656 3.264-61.504 0-119.040-23.296-162.688-65.984-89.536-87.616-89.536-229.888 0-317.504 43.648-42.688 101.184-65.984 162.688-65.984h239.68c70.72 0.96 137.152 27.84 187.456 76.928 105.408 103.488 105.408 271.296-0.064 374.784z" />
<glyph unicode="&#x29;" d="M736 704c0-17.664-14.336-32-32-32h-384c-17.664 0-32 14.336-32 32h-32v-160h32c0 17.664 14.336 32 32 32h128v-320c0-17.664-14.336-32-32-32v-32h192v32c-17.664 0-32 14.336-32 32v320h128c17.664 0 32-14.336 32-32h32v160h-32z" />
<glyph unicode="&#x2a;" d="M450.816 237.12c17.728 17.472 17.728 45.824 0 63.36l-149.376 147.52 149.312 147.52c17.728 17.472 17.728 45.824 0 63.36s-46.4 17.472-64.128 0l-181.376-179.2c-17.728-17.472-17.728-45.824 0-63.36l181.376-179.2c8.896-8.768 20.48-13.12 32.128-13.12s23.168 4.352 32.064 13.12zM573.184 658.88c-17.728-17.472-17.728-45.824 0-63.36l149.376-147.52-149.312-147.52c-17.728-17.472-17.728-45.824 0-63.36 17.728-17.472 46.4-17.472 64.128 0l181.376 179.2c17.728 17.472 17.728 45.824 0 63.36l-181.376 179.2c-8.896 8.768-20.48 13.12-32.128 13.12-11.584 0-23.168-4.352-32.064-13.12z" />
<glyph unicode="&#x2b;" d="M731.84 444.736c2.56 11.392 4.16 23.104 4.16 35.264 0 88.384-71.616 160-160 160s-160-71.616-160-160c0-2.176 0.576-4.16 0.64-6.336l-1.6 0.064c-4.864 39.552-38.208 70.272-79.040 70.272-44.16 0-80-35.84-80-80 0-10.816 2.176-21.056 6.080-30.464-41.408-21.184-70.080-63.808-70.080-113.536 0-70.656 57.28-128 128-128h128c17.664 0 32 14.336 32 32v146.752l-41.344-41.408c-12.48-12.48-32.768-12.48-45.248 0s-12.48 32.768 0 45.248l96 96c12.48 12.48 32.768 12.48 45.248 0l96-96c12.48-12.48 12.48-32.768 0-45.248-6.272-6.208-14.464-9.344-22.656-9.344s-16.384 3.136-22.656 9.344l-41.344 41.408v-146.752c0-17.664 14.336-32 32-32h128c70.72 0 128 57.344 128 128 0 61.12-42.88 112-100.16 124.736z" />
<glyph unicode="&#x2c;" d="M829.76 832c1.344 22.208 2.24 43.84 2.24 64h-640c0-20.16 0.896-41.792 2.24-64h-194.24v-32c0-218.304 138.112-367.744 303.168-423.424 45.248-94.144 104.192-164.16 176.832-180.288v-196.288h-96c-35.328 0-64-28.672-64-64h384c0 35.328-28.672 64-64 64h-96v196.224c72.64 16.128 131.584 86.144 176.832 180.288 165.056 55.744 303.168 205.184 303.168 423.488v32h-194.24zM65.216 768h134.656c10.944-99.904 33.6-210.048 68.288-307.328-107.712 55.808-192.128 161.92-202.944 307.328zM755.84 460.672c34.688 97.28 57.344 207.424 68.352 307.328h134.656c-10.88-145.408-95.296-251.52-203.008-307.328z" />
<glyph unicode="&#x2d;" d="M1024 448c0-26.432-21.568-48-48-48h-188.096l78.080-78.080c18.688-18.688 18.688-49.216 0-67.904-9.088-9.088-21.12-14.080-33.92-14.080s-24.896 4.992-33.92 14.080l-160 160c-9.152 9.088-14.144 21.184-14.144 33.984s4.992 24.896 14.080 33.92l160.064 160c9.088 9.088 21.12 14.080 33.92 14.080s24.896-4.992 33.92-14.080c18.688-18.688 18.688-49.216 0-67.904l-78.080-78.080h188.032c26.496 0.064 48.064-21.504 48.064-47.936zM400 448c0 12.8-4.992 24.896-14.080 33.92l-160 160c-9.024 9.088-21.12 14.080-33.92 14.080s-24.896-4.992-33.92-14.080c-18.688-18.688-18.688-49.216 0-67.904l78.080-78.080h-188.16c-26.432 0.064-48-21.504-48-47.936s21.568-48 48-48h188.032l-78.080-78.080c-18.688-18.688-18.688-49.216 0-67.904 9.088-9.088 21.12-14.080 33.92-14.080s24.896 4.992 33.92 14.080l160.064 160c9.152 9.088 14.144 21.184 14.144 33.984zM545.92 321.92c-9.024 9.088-21.12 14.080-33.92 14.080s-24.896-4.992-33.92-14.080l-160-160c-9.088-9.024-14.080-21.12-14.080-33.92s4.992-24.896 14.080-33.92c18.688-18.688 49.216-18.688 67.904 0l78.080 78.080v-188.096c-0.064-26.496 21.504-48.064 47.936-48.064s48 21.568 48 48v188.032l78.080-78.080c18.688-18.688 49.216-18.688 67.904 0 9.088 9.088 14.080 21.12 14.080 33.92s-4.992 24.896-14.080 33.92l-160.064 160.128zM478.080 574.080c9.024-9.088 21.12-14.080 33.92-14.080s24.896 4.992 33.92 14.080l160 160c9.088 9.024 14.080 21.12 14.080 33.92s-4.992 24.896-14.080 33.92c-18.688 18.688-49.216 18.688-67.904 0l-78.080-78.080v188.16c0.064 26.432-21.504 48-47.936 48s-48-21.568-48-48v-188.032l-78.080 78.080c-18.688 18.688-49.216 18.688-67.904 0-9.088-9.088-14.080-21.12-14.080-33.92s4.992-24.896 14.080-33.92l160.064-160.128z" />
<glyph unicode="&#x2e;" d="M623.936 896l336.064-821.696v821.696zM64 896v-821.696l322.048 821.696zM357.248 256h157.376l64.448-192h140.992l-215.168 523.456z" />
<glyph unicode="&#x2f;" d="M512 896c-81.088-246.528-320-382.592-320-616.832 0-171.776 138.432-279.168 320-279.168 189.312 0 320 109.376 320 281.152 0 234.24-242.24 368.32-320 614.848zM434.752 129.088c-12.16-11.904-28.16-18.432-45.056-18.432-18.432 0-36.224 8.128-48.768 22.272-35.968 40.896-54.976 93.312-54.976 151.68 0 114.88 66.88 203.584 137.6 297.472l3.584 4.608 20.8-12.928-2.688-5.312c-0.64-1.216-62.848-128.128-50.496-238.080 2.624-23.936 24.832-76.352 44.736-105.856 21.824-32.32 19.904-71.552-4.736-95.424z" />
<glyph unicode="&#x30;" d="M834.112 493.952c50.752 50.496 75.84 114.048 53.888 185.28l-116.288-115.712-108.8 31.296-31.488 108.16 118.208 117.568c-71.296 22.208-138.88-0.768-190.912-52.544-53.888-53.632-70.976-127.104-51.84-193.408l-343.424-320.128c0 0-2.432-2.048-3.648-3.264-42.88-42.624-42.24-111.104 0.576-153.728 42.816-42.56 112.256-42.688 155.072 0 1.28 1.216 2.752 3.008 2.752 3.008l0.128-0.128 323.008 342.656c66.944-18.688 139.776-1.856 192.768 50.944zM668.608 331.52c6.080 6.4 16.448 6.848 22.976 0.96l183.232-165.056c6.656-5.888 6.848-15.808 0.64-22.080l-112.448-111.808c-6.272-6.208-16.32-6.016-22.272 0.512l-162.304 178.496c-5.952 6.528-5.888 17.152 0.192 23.552l89.984 95.424zM233.216 589.056c8.896 0.384 21.312-4.352 27.648-10.56l48.832-47.168c6.336-6.144 16.768-6.272 23.232-0.256l38.016 35.392c6.528 6.080 6.656 16.064 0.32 22.272l-50.752 49.024c-6.336 6.144-11.136 18.368-10.752 27.264l0.768 16.512c0.384 8.832-5.312 20.032-12.8 24.768l-91.136 58.752c-7.424 4.864-18.624 3.648-24.896-2.56l-46.080-45.888c-6.272-6.208-7.488-17.408-2.624-24.768l58.752-90.688c4.8-7.424 16.064-13.184 24.96-12.736l16.512 0.64z" />
<glyph unicode="&#x31;" d="M0 672.896c0 18.048 12.864 39.424 28.608 47.552l454.72 233.472c15.744 8.064 41.472 8.064 57.28 0l454.72-233.472c15.808-8.128 28.672-29.504 28.672-47.552 0-18.112-14.4-32.896-32-32.896h-960c-17.6 0-32 14.784-32 32.896zM320 192v384h-192v-384h192zM608 192v384h-192v-384h192zM896 192v384h-192v-384h192zM974.336 99.392c-7.872 15.744-28.736 28.608-46.336 28.608h-832c-17.6 0-38.464-12.864-46.336-28.608l-35.392-70.72c-7.808-15.808-14.272-43.072-14.272-60.672s14.4-32 32-32h960c17.6 0 32 14.4 32 32s-6.464 44.864-14.336 60.608l-35.328 70.784z" />
<glyph unicode="&#x32;" d="M256 512c-0.448 96.064 0.064 96.064 0.064 96.064l-192.064 63.936 480 160 480-160-479.232-160-224.192 74.624-0.576-74.624c0-192-192-192-192-192v64c0 0 128.512 16.256 128 128zM685.824 292.736l-140.928-84.736-141.952 84.992c-124.16-49.408-210.944-161.92-210.944-292.992h704c0 130.816-86.464 243.136-210.176 292.736z" />
<glyph unicode="&#x33;" d="M831.616 640c-2.112 68.864-58.24 128-127.616 128h-64c0 70.656-57.344 64-128 64v0c-70.72 0-128 0-128-64h-64c-69.376 0-125.504-59.136-127.616-128h639.232zM256 128c0-35.392 28.608-64 64-64h384c35.392 0 64 28.608 64 64v448h-512v-448z" />
<glyph unicode="&#x34;" d="M877.248 557.248c25.024-25.024 25.024-65.472 0-90.496s-65.472-25.024-90.496 0l-210.752 210.752v-485.504h-128v485.504l-210.752-210.752c-25.024-25.024-65.472-25.024-90.496 0s-25.024 65.472 0 90.496l320 320c12.48 12.48 28.864 18.752 45.248 18.752s32.768-6.272 45.248-18.752l320-320zM192 0h640c35.392 0 64 28.608 64 64s-28.608 64-64 64h-640c-35.392 0-64-28.608-64-64s28.608-64 64-64z" />
<glyph unicode="&#x35;" d="M146.752 338.752c-25.024 25.024-25.024 65.472 0 90.496s65.472 25.024 90.496 0l210.752-210.752v485.504h128v-485.504l210.752 210.752c25.024 25.024 65.472 25.024 90.496 0s25.024-65.472 0-90.496l-320-320c-12.48-12.48-28.864-18.752-45.248-18.752s-32.768 6.272-45.248 18.752l-320 320zM832 896h-640c-35.392 0-64-28.608-64-64s28.608-64 64-64h640c35.392 0 64 28.608 64 64s-28.608 64-64 64z" />
<glyph unicode="&#x36;" d="M896 768h-448c-35.264 0-64-28.608-64-64v-640c0-35.328 28.736-64 64-64h448c35.392 0 64 28.672 64 64v640c0 35.392-28.608 64-64 64zM448 704h448v-320h-448v320zM736 128h-224v64h224c17.728 0 32-14.336 32-32s-14.272-32-32-32zM800 256h-288v64h288c17.728 0 32-14.336 32-32s-14.272-32-32-32zM640 832h-512v-320h192v-64h-128v-64h128v-64h-128c0-69.44 0-69.44 0-64h128v-128h-192c-35.392 0-64 28.608-64 64v640c0 35.392 28.608 64 64 64h448c35.392 0 64-28.608 64-64z" />
<glyph unicode="&#x37;" d="M630.464 305.792l72.64-223.488-190.144 138.112-190.144-138.112 72.64 223.488-202.944 142.208h247.808l7.68 23.232v296.768h128v-291.136l9.536-28.864h246.976l-202.048-142.208zM704 768h-64v-256h64v256zM384 768h-64v-256h64v256z" />
<glyph unicode="&#x38;" d="M677.12 248.896l101.632-312.896-266.176 193.408-266.176-193.408 101.696 312.896-284.096 199.104h346.944l37.056 112v400h128v-396.352l38.272-115.648h345.728l-282.88-199.104zM704 512h128v448h-192v-384c0-35.328 28.672-64 64-64zM384 576v384h-192v-448h128c35.328 0 64 28.672 64 64z" />
<glyph unicode="&#x39;" d="M416.448 223.552c27.968-25.536 63.104-41.6 105.472-48.128v260.16c-37.504 8.512-69.76 17.856-97.024 27.968-27.2 10.176-49.792 22.272-67.776 36.352-18.048 14.080-31.296 31.232-39.808 51.584-8.448 20.224-12.672 44.8-12.672 73.6 0 29.44 5.632 56.448 16.96 80.96 11.2 24.576 26.624 45.76 46.080 63.808 19.456 17.984 42.368 32.192 68.864 42.688s45.12 15.808 75.456 17.728v65.728h60.032l-2.048-65.984c57.216-6.592 113.024-25.92 146.944-58.624 33.92-32.768 57.984-77.888 72.064-135.488h-90.048c-14.144 64.768-53.76 102.72-118.72 113.856v-241.472l63.616-15.744c14.080-3.264 30.72-8.96 49.792-17.152s37.376-19.456 55.104-33.856c17.6-14.4 32.704-32.384 45.056-54.016s18.56-47.424 18.56-77.504c0-32.064-5.888-60.544-17.536-85.44s-27.776-46.336-48.192-64.32c-20.48-18.048-44.864-32.256-73.152-42.752-28.288-10.432-63.552-16.896-97.472-19.52l-1.984-97.984h-62.016l3.968 98.56c-70.656 6.528-120.832 28.608-162.56 67.584s-65.408 92.8-71.040 161.472h90.048c1.408-43.84 16.128-78.528 44.032-104.064zM435.52 718.784c-23.68-19.264-35.52-47.616-35.52-84.864 0-17.024 3.072-31.552 9.024-43.712 6.016-12.16 14.464-22.272 25.472-30.464 10.944-8.192 23.808-15.232 38.72-21.12 14.784-5.824 30.976-11.072 48.64-15.68v229.76c-33.856-3.328-62.656-14.592-86.336-33.92zM634.752 185.28c16.64 5.248 31.104 12.928 43.456 23.040s21.888 22.912 28.608 38.272 10.112 33.536 10.112 54.464c0 18.944-3.584 34.816-10.624 47.616s-16.64 23.68-28.608 32.896c-11.968 9.152-26.496 16.896-43.456 23.104s-35.008 11.904-54.016 17.152v-246.4c19.712 1.344 38.016 4.608 54.528 9.856z" />
<glyph unicode="&#x3a;" d="M320 296v-144c0-13.248-10.752-24-24-24h-144c-13.248 0-24 10.752-24 24v144c0 13.248 10.752 24 24 24h144c13.248 0 24-10.752 24-24zM552 320h-144c-13.248 0-24-10.752-24-24v-144c0-13.248 10.752-24 24-24h144c13.248 0 24 10.752 24 24v144c0 13.248-10.752 24-24 24zM808 320h-144c-13.248 0-24-10.752-24-24v-144c0-13.248 10.752-24 24-24h144c13.248 0 24 10.752 24 24v144c0 13.248-10.752 24-24 24zM296 576h-144c-13.248 0-24-10.752-24-24v-144c0-13.248 10.752-24 24-24h144c13.248 0 24 10.752 24 24v144c0 13.248-10.752 24-24 24zM552 576h-144c-13.248 0-24-10.752-24-24v-144c0-13.248 10.752-24 24-24h144c13.248 0 24 10.752 24 24v144c0 13.248-10.752 24-24 24zM808 576h-144c-13.248 0-24-10.752-24-24v-144c0-13.248 10.752-24 24-24h144c13.248 0 24 10.752 24 24v144c0 13.248-10.752 24-24 24zM296 832h-144c-13.248 0-24-10.752-24-24v-144c0-13.248 10.752-24 24-24h144c13.248 0 24 10.752 24 24v144c0 13.248-10.752 24-24 24zM552 832h-144c-13.248 0-24-10.752-24-24v-144c0-13.248 10.752-24 24-24h144c13.248 0 24 10.752 24 24v144c0 13.248-10.752 24-24 24zM808 832h-144c-13.248 0-24-10.752-24-24v-144c0-13.248 10.752-24 24-24h144c13.248 0 24 10.752 24 24v144c0 13.248-10.752 24-24 24z" />
<glyph unicode="&#x3b;" d="M511.424 832c-219.712 0-383.424-172.288-383.424-384s163.712-384 383.424-384c220.864 0 384.576 172.288 384.576 384s-163.712 384-384.576 384zM506.176 336c38.080 0 71.808 17.344 92.544 47.68 8.896 13.056 23.744 20.864 39.616 20.864 9.728 0 19.136-2.944 27.136-8.512 10.496-7.104 17.6-17.984 19.968-30.656s-0.32-25.344-7.552-35.968c-38.848-56.768-101.504-89.408-171.712-89.408-116.48 0-207.808 91.392-207.808 208s91.264 208 207.808 208c70.272 0 132.864-32.64 171.776-89.408 7.232-10.624 9.92-23.36 7.552-35.968s-9.472-23.488-20.096-30.72c-7.872-5.44-17.28-8.448-27.008-8.448-15.936 0-30.72 7.872-39.68 20.992-20.8 30.208-54.528 47.552-92.544 47.552-62.72 0-111.808-49.216-111.808-112s49.088-112 111.808-112z" />
<glyph unicode="&#x3c;" d="M320 832v-704c0-35.392-28.608-64-64-64s-64 28.608-64 64v704h128zM672 608l224 224h-512v-448h512l-224 224z" />
<glyph unicode="&#x3d;" d="M652.608 548.416c88.384-88.384 88.384-232.96 0.128-321.28l-160.768-160.832c-44.224-44.288-102.4-66.304-160.768-66.304-58.176 0-116.48 22.016-160.704 66.304l-40.256 40.32c-88.256 88.32-88.384 232.896 0 321.344l91.2 91.136c-1.536-46.016 6.912-92.224 25.6-135.104l-36.416-36.416c-44.16-44.224-44.16-116.352 0-160.704l40.256-40.256c21.312-21.184 49.856-32.96 80.256-32.896 30.528-0.064 59.072 11.712 80.384 32.896l160.768 160.768c44.288 44.224 44.16 116.352 0 160.704l-40.192 40.256c-6.976 6.976-14.848 12.736-23.296 17.408 0.896 1.088 1.28 2.432 2.304 3.456l78.72 78.72c7.872-5.76 15.424-12.032 22.528-19.264l40.256-40.256zM692.864 896.128c-58.304 0-116.608-22.144-160.704-66.368l-160.832-160.768c-88.384-88.448-88.256-233.024 0-321.344l40.256-40.256c7.232-7.232 15.296-12.864 23.104-18.88l78.336 78.272c0.896 1.088 1.472 2.432 2.24 3.584-8.32 4.864-16.32 10.368-23.296 17.344l-40.256 40.256c-44.16 44.288-44.16 116.416 0 160.704l160.768 160.704c21.312 21.248 49.856 33.024 80.384 33.024 30.4 0 58.944-11.84 80.256-32.96l40.256-40.32c44.16-44.288 44.288-116.416 0-160.704l-36.416-36.416c18.688-42.944 27.136-89.152 25.6-135.168l91.2 91.264c88.256 88.32 88.256 232.896-0.128 321.28l-40.256 40.256c-44.032 44.352-102.272 66.496-160.512 66.496z" />
<glyph unicode="&#x3e;" d="M768 832h-576c-70.72 0-128-57.28-128-128v-256c0-70.656 57.28-128 128-128h128v-320l320 320h128c70.656 0 128 57.344 128 128v256c0 70.72-57.344 128-128 128z" />
<glyph unicode="&#x3f;" d="M61.056 169.728v363.968h182.336v-363.904h-182.336zM319.232 169.728v363.968h40c28.288 0 50.368 2.112 66.176 6.272s27.52 9.728 35.008 16.64c7.424 6.912 15.616 17.856 24.512 32.832 3.328 5.056 9.152 13.056 17.536 24.192 13.888 16.64 30.784 31.36 50.752 44.096 19.456 14.464 42.88 38.144 70.336 71.232 27.52 33.024 47.36 61.184 59.584 84.544 9.984 18.304 18.304 34.688 24.96 49.152 6.656 13.888 12.608 22.784 17.92 26.624 5.312 3.904 14.272 5.824 27.072 5.824 14.976 0 28.032-6.528 39.104-19.584 11.136-12.992 16.64-29.248 16.64-48.704 0-31.104-13.568-74.944-40.768-131.584-0.576-1.664-1.536-4.032-2.944-7.040-1.344-3.072-3.008-6.784-4.992-11.264-1.984-4.416-3.776-8.32-5.44-11.648-18.304-37.76-27.456-62.464-27.456-74.112 0-20.544 9.152-35.008 27.456-43.328s46.080-12.48 83.264-12.48h76.608c15.616-2.24 27.52-10.048 35.904-23.36 8.32-13.312 12.48-29.376 12.48-48.256v-9.152c-1.664-3.328-2.496-6.080-2.496-8.32 0-1.088-1.088-9.152-3.328-24.128-0.576-2.24-1.28-5.44-2.112-9.6s-1.28-7.040-1.28-8.768c-2.752-11.648-4.992-23.296-6.656-34.944-0.576-3.904-1.408-8.32-2.496-13.312s-2.048-8.896-2.944-11.712c-0.832-2.752-1.216-4.992-1.216-6.656-4.992-30.016-13.056-70.272-24.192-120.768-11.072-57.216-24-96.448-38.72-117.824s-39.296-32.064-73.664-32.064h-92.416c-13.312-1.664-27.392-2.496-42.368-2.496h-55.744c-22.72 0-42.048 3.776-58.176 11.264-16.064 7.488-31.296 20.928-45.696 40.384-17.28 23.296-40.064 38.592-68.416 45.824-7.744 2.816-21.952 5.568-42.56 8.32h-79.232z" />
<glyph unicode="&#x40;" d="M512 768c-282.752 0-512-256-512-320s229.248-320 512-320 512 256 512 320-229.248 320-512 320zM512 224c-123.648 0-224 100.288-224 224s100.352 224 224 224c123.84 0 224-100.288 224-224s-100.16-224-224-224zM592 448c0-44.16-35.84-80-80-80s-80 35.84-80 80 35.84 80 80 80 80-35.84 80-80z" />
<glyph unicode="&#x41;" d="M64 256v320l419.776-259.136c8.64-5.376 18.432-8.064 28.224-8.064s19.712 2.688 28.352 8.128l419.648 259.072v-320c0-64-64-128-128-128h-640c-64 0-128 64-128 128zM960 704c0 29.44-24.256 64-53.76 64h-788.928c-29.376 0-53.312-34.56-53.312-64l448-256 448 256z" />
<glyph unicode="&#x42;" d="M512 768c-167.296 0-256-125.44-256-250.88s256-453.12 256-453.12 256 327.68 256 453.12-88.768 250.88-256 250.88zM512 368c-78.592 0-144 65.408-144 144s65.408 144 144 144 144-65.408 144-144-65.408-144-144-144z" />
<glyph unicode="&#x43;" d="M102.272 243.264c0 0 153.728 206.080 153.728 332.736 0 0 0 30.144 0 32 0 159.040 114.624 288 256 288s256-128.96 256-288c0-1.856 0-32.064 0-32.064 0-126.656 153.728-332.736 153.728-332.736 20.992-28.096 9.536-51.136-25.472-51.264h-768.256c-35.136 0.064-46.784 23.168-25.728 51.328zM512 0c70.72 0 128 57.344 128 128h-256c0-70.656 57.344-128 128-128z" />
<glyph unicode="&#x44;" d="M704 448v128c0 105.856-86.144 192-192 192s-192-86.144-192-192v-128c-35.328 0-64-28.672-64-64v-192c0-35.328 28.672-64 64-64h384c35.328 0 64 28.672 64 64v192c0 35.328-28.672 64-64 64zM576 448h-128v128c0 35.328 28.672 64 64 64s64-28.672 64-64v-128z" />
<glyph unicode="&#x45;" d="M768 576v64c0 141.376-114.624 256-256 256s-256-114.624-256-256v-64h-64v-384c0-70.656 57.344-128 128-128h384c70.72 0 128 57.344 128 128v384h-64zM512 208c-61.824 0-112 50.176-112 112s50.176 112 112 112 112-50.176 112-112-50.176-112-112-112zM640 576h-256v64c0 70.592 57.472 128 128 128 70.656 0 128-57.408 128-128v-64z" />
<glyph unicode="&#x46;" d="M512 0c-247.040 0-448 201.024-448 448s200.96 448 448 448 448-201.024 448-448-200.96-448-448-448zM512 768c-176.448 0-320-143.552-320-320s143.552-320 320-320 320 143.552 320 320-143.552 320-320 320zM531.52 680c-17.344 0-31.68-12.992-33.408-30.272l-19.52-195.264-165.504-16.512c-17.216-1.728-30.208-16.128-30.208-33.472s12.992-31.68 30.208-33.472l258.752-27.072c11.136 0 20.16 9.088 20.16 20.8l-27.072 284.992c-1.728 17.28-16.064 30.272-33.408 30.272z" />
<glyph unicode="&#x47;" d="M512 896c-247.040 0-448-200.96-448-448s200.96-448 448-448 448 200.96 448 448-200.96 448-448 448zM568 344l-0.768 0.064-307.264 32.128c-20.48 2.048-35.968 19.2-35.968 39.808 0 20.672 15.488 37.824 35.968 39.808l197.056 19.712 23.232 232.512c1.984 20.48 19.136 36.032 39.744 36.032s37.76-15.488 39.744-36.032l32.256-339.264c0-13.952-10.752-24.768-24-24.768z" />
<glyph unicode="&#x48;" d="M512 960l116.864-384h395.136l-323.328-227.52 131.328-412.48-319.296 275.904-320.704-275.904 132.672 412.48-324.672 227.52h396.48z" />
<glyph unicode="&#x49;" d="M896 960c-35.392 0-64-28.608-64-64v-165.504l-0.512-0.512c-83.328 78.336-191.040 121.728-305.92 121.728-247.040 0-448-201.024-448-448s200.96-448 448-448c145.216 0 282.112 71.104 366.080 190.272 20.352 28.864 13.44 68.8-15.424 89.216-28.864 20.288-68.8 13.44-89.216-15.424-60.032-85.184-157.76-136-261.44-136-176.448 0-320 143.552-320 320s143.552 320 320 320c80 0 154.56-30.336 213.504-83.712h-163.072c-35.392-0.064-64-28.672-64-64.064s28.608-64 64-64h320c35.392 0 64 28.608 64 64v320c0 35.392-28.608 64-64 64z" />
<glyph unicode="&#x4a;" d="M960 832v-320c0-35.392-28.608-64-64-64s-64 28.608-64 64v165.504l-402.752-402.752c-12.48-12.48-28.864-18.752-45.248-18.752s-32.768 6.272-45.248 18.752c-25.024 25.024-25.024 65.472 0 90.496l402.752 402.752h-165.504c-35.392 0-64 28.608-64 64s28.608 64 64 64h320c35.392 0 64-28.608 64-64zM768 384c-35.392 0-64-28.608-64-64v-192h-512v512h192c35.392 0 64 28.608 64 64s-28.608 64-64 64h-192c-70.592 0-128-57.408-128-128v-512c0-70.592 57.408-128 128-128h512c70.592 0 128 57.408 128 128v192c0 35.392-28.608 64-64 64z" />
<glyph unicode="&#x4b;" d="M877.248 173.248l-217.92 217.92c27.904 44.416 44.672 96.512 44.672 152.832 0 159.040-128.96 288-288 288s-288-128.96-288-288 128.96-288 288-288c56.256 0 108.416 16.768 152.768 44.672l217.92-217.92c12.544-12.48 28.928-18.752 45.312-18.752s32.768 6.272 45.248 18.752c24.96 25.024 24.96 65.472 0 90.496zM208 544c0 114.688 93.312 208 208 208s208-93.312 208-208c0-56.896-23.040-108.416-60.16-145.984-0.32-0.384-0.832-0.448-1.152-0.768s-0.384-0.768-0.704-1.088c-37.568-37.12-89.088-60.16-145.984-60.16-114.688 0-208 93.312-208 208z" />
<glyph unicode="&#x4c;" d="M512 320c-35.328 0-64 28.608-64 64v448c0 35.392 28.672 64 64 64s64-28.608 64-64v-448c0-35.392-28.672-64-64-64zM896 384c0 102.464-40 198.848-112.576 271.424-25.024 25.024-65.472 25.024-90.496 0s-25.024-65.472 0-90.496c48.384-48.448 75.072-112.704 75.072-180.928 0-141.184-114.816-256-256-256s-256 114.816-256 256c0 68.224 26.688 132.48 75.072 180.928 25.024 25.024 25.024 65.472 0 90.496s-65.536 25.024-90.56 0c-72.512-72.576-112.512-168.896-112.512-271.424 0-211.776 172.224-384 384-384s384 172.224 384 384z" />
<glyph unicode="&#x4d;" d="M511.424 832c-219.712 0-383.424-172.288-383.424-384s163.712-384 383.424-384c220.864 0 384.576 172.288 384.576 384s-163.712 384-384.576 384zM567.424 185.6h-106.176v103.040h106.176v-103.040zM655.36 451.392c-8.256-11.776-23.552-26.304-46.72-44.416l-22.144-17.216c-11.008-8.512-18.304-18.496-21.824-29.696-2.304-7.36-3.648-19.136-3.84-35.008v-6.336h-97.664l0.256 6.656c1.28 36.288 4.672 60.864 10.432 75.136 5.888 14.656 20.096 30.656 43.712 49.088l22.72 17.792c7.040 5.248 12.48 10.816 16.832 17.024 7.488 10.304 11.328 21.76 11.328 34.176 0 14.4-4.288 27.712-12.736 39.616-7.872 11.136-23.232 16.768-45.44 16.768-21.952 0-36.928-6.912-45.824-21.056-9.6-15.232-14.208-30.4-14.208-46.592v-6.4h-103.36l0.32 6.656c2.56 61.312 24.512 105.472 65.152 131.392 25.472 16.384 57.152 24.704 94.016 24.704 48.192 0 88.96-11.776 121.152-34.944 32.768-23.68 49.344-59.072 49.344-105.216-0.064-28.288-7.232-52.608-21.504-72.128z" />
<glyph unicode="&#x4e;" d="M896 512h-38.080c-0.064 0.192-0.128 0.384-0.128 0.576-0.896 0-1.664-0.512-2.624-0.512-43.2 0-78.208 35.008-78.208 78.208 0 22.592 9.856 42.56 25.152 56.832-0.064 0.064-0.128 0.192-0.192 0.256l26.88 26.88c25.024 25.024 24.96 65.536 0 90.496s-65.536 25.024-90.496 0l-26.816-26.88c-0.192 0.128-0.384 0.192-0.576 0.32-0.64-0.704-0.832-1.6-1.536-2.304-30.528-30.528-80.064-30.528-110.656 0-15.936 15.936-23.104 36.992-22.4 57.856 0 0-0.192 0.064-0.32 0.064v38.208c0 35.328-28.672 64-64 64s-64-28.672-64-64v-38.080c-0.192-0.064-0.384-0.128-0.384-0.128-0.192-0.96 0.32-1.728 0.32-2.624 0-43.2-35.008-78.208-78.208-78.208-22.592 0-42.56 9.856-56.832 25.152-0.128-0.064-0.256-0.128-0.32-0.192l-26.816 26.88c-25.024 24.96-65.536 24.96-90.56 0-25.024-25.024-25.024-65.536 0-90.496l26.88-26.88c-0.128-0.192-0.192-0.384-0.32-0.576 0.704-0.64 1.6-0.832 2.304-1.536 30.528-30.528 30.528-80.064 0-110.656-15.936-15.936-36.992-23.104-57.856-22.4 0-0.128-0.064-0.192-0.064-0.32h-38.144c-35.328 0.064-64-28.608-64-63.936s28.672-64 64-64h38.080c0.064-0.192 0.128-0.384 0.128-0.576 0.896 0 1.664 0.512 2.624 0.512 43.2 0 78.208-35.008 78.208-78.208 0-22.592-9.856-42.56-25.152-56.832 0.064-0.064 0.128-0.192 0.192-0.256l-26.88-26.88c-25.024-25.024-25.024-65.536 0-90.496 24.96-25.024 65.536-25.024 90.496 0l26.816 26.88c0.192-0.128 0.384-0.192 0.576-0.32 0.64 0.704 0.832 1.6 1.536 2.304 30.528 30.528 80.064 30.528 110.656 0 15.936-15.936 23.104-36.992 22.4-57.856 0 0 0.192-0.064 0.32-0.064v-38.208c0-35.328 28.672-64 64-64s64 28.672 64 64v38.080c0.192 0.064 0.384 0.128 0.384 0.128 0.192 0.96-0.32 1.728-0.32 2.624 0 43.2 35.008 78.208 78.208 78.208 22.592 0 42.56-9.856 56.832-25.152 0.064 0.064 0.192 0.128 0.256 0.192l26.816-26.88c25.024-25.024 65.536-25.024 90.496 0 24.96 24.96 25.024 65.536 0 90.496l-26.88 26.88c0.128 0.192 0.192 0.384 0.32 0.576-0.704 0.64-1.6 0.832-2.304 1.536-30.528 30.528-30.528 80.064 0 110.656 15.936 15.936 36.992 23.104 57.856 22.4 0 0.128 0.064 0.192 0.064 0.256h38.272c35.328 0 64 28.672 64 64s-28.672 64-64 64zM512 320c-70.656 0-128 57.28-128 128s57.344 128 128 128 128-57.28 128-128c0-70.72-57.344-128-128-128z" />
<glyph unicode="&#x4f;" d="M947.52 382.784l-102.912 386.496c-6.976 34.496-41.344 62.72-76.608 62.72h-512c-35.136 0-69.632-28.224-76.48-62.72l-102.912-386.496c-6.976-34.56-12.608-91.52-12.608-126.784v-192c0-35.136 28.864-64 64-64h768c35.264 0 64 28.864 64 64v192c0 35.264-5.632 92.224-12.48 126.784zM512 288c-128 0-160 96-160 160h-131.904l76.864 256h430.144l76.736-256h-131.84c0-64-32-160-160-160z" />
<glyph unicode="&#x50;" d="M960 256v-64c0-70.592-57.408-128-128-128h-640c-70.592 0-128 57.408-128 128v448c0 70.592 57.408 128 128 128h128c35.392 0 64-28.608 64-64s-28.608-64-64-64h-128v-448h640v64c0 35.392 28.608 64 64 64s64-28.608 64-64zM704 518.4v-198.4l288 288-288 288v-192c-192 0-384-192-384-384 0 0 192 198.4 384 198.4z" />
<glyph unicode="&#x51;" d="M894.72 766.72h-448c-37.952 0-62.72-24.64-62.72-62.72v-571.072c0-38.016 30.976-68.928 68.928-68.928h443.072c32.832 3.072 59.648 29.952 62.72 62.72v576c0 38.144-25.856 64-64 64zM448 256v448h448v-448h-448zM128 384l190.72-1.28v-190.72h-192c-37.952 0-62.72 25.984-62.72 64v574.72c0 38.080 24.768 64 62.72 64h384c38.144 0 65.28-24.64 65.28-62.72h-448v-448zM704 512h126.72v-64h-126.72v-128h-64v128h-128v64h128v126.72h64v-126.72z" />
<glyph unicode="&#x52;" d="M896 768h-438.144c-37.952 0-73.856-25.92-73.856-64v-571.072c0-38.016 30.976-68.928 68.928-68.928h443.072c32.832 3.072 60.928 31.232 64 64v576c0 38.080-25.92 64-64 64zM448 256v448h448v-448h-448zM128 384h192v-192h-187.072c-37.952 0-68.928 30.912-68.928 68.928v565.312c0 38.080 30.976 69.76 68.928 69.76h379.072c38.080 0 64-25.92 64-64h-448v-448z" />
<glyph unicode="&#x53;" d="M357.76 576h312.128l46.336-128h-405.824l47.36 128zM405.12 704h218.496l-47.616 128h-128l-42.88-128zM832 128l-69.44 192h-499.52l-71.040-192h-128v-128h896v128h-128z" />
<glyph unicode="&#x54;" d="M896 0v896c0 35.392-28.608 64-64 64h-640c-35.264 0-64-28.608-64-64v-896c0-35.328 28.736-64 64-64h640c35.008-0.192 64 25.984 64 64zM192 896h640v-384h-640v384zM608 192h-352v64h352c17.728 0 32-14.336 32-32s-14.272-32-32-32zM736 320h-480v64h480c17.728 0 32-14.336 32-32s-14.272-32-32-32z" />
<glyph unicode="&#x55;" d="M768 832h-512c-35.392 0-64-28.608-64-64v-768h256v128c0 35.328 28.672 64 64 64s64-28.672 64-64v-128h256v768c0 35.392-28.608 64-64 64zM384 288c0-17.6-14.4-32-32-32h-64c-17.728 0-32 14.4-32 32v64c0 17.728 14.272 32 32 32h64c17.6 0 32-14.272 32-32v-64zM384 480c0-17.6-14.4-32-32-32h-64c-17.728 0-32 14.4-32 32v64c0 17.728 14.272 32 32 32h64c17.6 0 32-14.272 32-32v-64zM384 672c0-17.6-14.4-32-32-32h-64c-17.728 0-32 14.4-32 32v64c0 17.728 14.272 32 32 32h64c17.6 0 32-14.272 32-32v-64zM576 288c0-17.6-14.4-32-32-32h-64c-17.728 0-32 14.4-32 32v64c0 17.728 14.272 32 32 32h64c17.6 0 32-14.272 32-32v-64zM576 480c0-17.6-14.4-32-32-32h-64c-17.728 0-32 14.4-32 32v64c0 17.728 14.272 32 32 32h64c17.6 0 32-14.272 32-32v-64zM576 672c0-17.6-14.4-32-32-32h-64c-17.728 0-32 14.4-32 32v64c0 17.728 14.272 32 32 32h64c17.6 0 32-14.272 32-32v-64zM768 288c0-17.6-14.4-32-32-32h-64c-17.728 0-32 14.4-32 32v64c0 17.728 14.272 32 32 32h64c17.6 0 32-14.272 32-32v-64zM768 480c0-17.6-14.4-32-32-32h-64c-17.728 0-32 14.4-32 32v64c0 17.728 14.272 32 32 32h64c17.6 0 32-14.272 32-32v-64zM768 672c0-17.6-14.4-32-32-32h-64c-17.728 0-32 14.4-32 32v64c0 17.728 14.272 32 32 32h64c17.6 0 32-14.272 32-32v-64z" />
<glyph unicode="&#x56;" d="M832 768h-134.4c-14.848 73.024-79.36 128-156.736 128h-64c-77.504 0-142.016-54.976-156.864-128h-128c-35.392 0-64-28.672-64-64v-640c0-35.328 28.608-64 64-64h640c35.392 0 64 28.672 64 64v640c0 35.328-28.608 64-64 64zM288 168c-30.912 0-56 25.088-56 56s25.088 56 56 56 56-25.088 56-56c0-30.912-25.088-56-56-56zM288 296c-30.912 0-56 25.088-56 56s25.088 56 56 56 56-25.088 56-56c0-30.912-25.088-56-56-56zM288 424c-30.912 0-56 25.088-56 56s25.088 56 56 56 56-25.088 56-56c0-30.912-25.088-56-56-56zM480 832h64c52.992 0 96-42.944 96-96s-43.008-96-96-96h-64c-52.992 0-96 42.944-96 96s43.008 96 96 96zM736 192h-352v64h352c17.728 0 32-14.336 32-32s-14.272-32-32-32zM736 320h-352v64h352c17.728 0 32-14.336 32-32s-14.272-32-32-32zM736 448h-352v64h352c17.728 0 32-14.336 32-32s-14.272-32-32-32z" />
<glyph unicode="&#x57;" d="M257.024 768h286.4c56.576 0 102.336-16.064 137.088-48.128 34.816-32.128 52.224-77.248 52.224-135.296 0-49.984-15.552-93.504-46.592-130.432-31.040-37.12-78.592-55.552-142.592-55.552h-199.872v-270.592h-86.656v640zM593.28 680c-19.072 9.024-45.12 13.504-78.272 13.504h-171.328v-221.76h171.264c38.656 0 70.016 8.256 94.080 24.832s36.096 45.76 36.096 87.552c0.064 47.040-17.216 78.976-51.84 95.872z" />
<glyph unicode="&#x58;" d="M192 384v-384h-128v384c0 35.2 28.8 64 64 64v0c35.2 0 64-28.8 64-64zM384 896v0c-35.2 0-64-28.8-64-64v-832h128v832c0 35.2-28.8 64-64 64zM640 640v0c-35.2 0-64-28.8-64-64v-576h128v576c0 35.2-28.8 64-64 64zM896 256v0c-35.2 0-64-28.8-64-64v-192h128v192c0 35.2-28.8 64-64 64z" />
<glyph unicode="&#x59;" d="M895.936 640h-255.936v256l255.936-256zM895.936 576v-576h-767.936v896h447.936v-256c0-35.392 28.672-64 64.064-64h255.936zM344 160c0 30.912-25.088 56-56 56s-56-25.088-56-56c0-30.912 25.088-56 56-56s56 25.088 56 56zM344 288c0 30.912-25.088 56-56 56s-56-25.088-56-56c0-30.912 25.088-56 56-56s56 25.088 56 56zM344 416c0 30.912-25.088 56-56 56s-56-25.088-56-56c0-30.912 25.088-56 56-56s56 25.088 56 56zM768 160c0 17.664-14.272 32-32 32h-352.064v-64h352.064c17.728 0 32 14.336 32 32zM768 288c0 17.664-14.272 32-32 32h-352.064v-64h352.064c17.728 0 32 14.336 32 32zM768 416c0 17.664-14.272 32-32 32h-352.064v-64h352.064c17.728 0 32 14.336 32 32z" />
<glyph unicode="&#x5a;" d="M832 640h-128v128c0 35.968-25.984 64-64 64h-256c-36.032 0-64-25.024-64-64v-128h-128c-70.72 0-128-57.344-128-128v-320c0-70.656 57.28-128 128-128h640c70.656 0 128 57.344 128 128v320c0 70.656-57.344 128-128 128zM384 640v128h256v-128h-256z" />
<glyph unicode="&#x5b;" d="M32 640c0 35.392 28.608 64 64 64h96c79.424 0 138.688-39.488 188.16-92.544-22.976-30.528-43.392-61.44-62.144-89.792-4.224-6.464-8.32-12.544-12.48-18.752-37.312 46.528-71.488 73.088-113.536 73.088h-96c-35.392 0-64 28.608-64 64zM813.248 402.752l-45.248-45.248v-69.504h-64c-66.112 0-114.176 39.616-164.288 104.512-2.752-4.16-5.248-7.744-8.128-12.16-20.736-31.488-43.264-64.896-68.224-97.024 59.52-68.352 134.848-123.328 240.64-123.328h64v-160l224 224-178.752 178.752zM768 736h-64c-168 0-259.264-138.432-332.544-249.6-68.288-103.552-114.368-166.4-179.456-166.4h-96c-35.392 0-64-28.608-64-64s28.608-64 64-64h96c138.688 0 217.088 118.912 286.336 223.872 76.48 116.096 133.504 192.128 225.664 192.128h64v-160l224 224-224 224v-160z" />
<glyph unicode="&#x5c;" d="M512.064 96c0-52.992-43.008-96-96-96-53.056 0-96 43.008-96 96s42.944 96 96 96c52.928 0 96-43.008 96-96zM736.064 192c-53.056 0-96-43.008-96-96s42.944-96 96-96c52.992 0 96 43.008 96 96s-43.072 96-96 96zM947.968 677.376c-12.096 16.768-31.36 26.624-51.968 26.624h-593.856l-49.536 148.224c-8.64 26.176-33.088 43.776-60.608 43.776h-128c-35.392 0-64-28.608-64-64s28.608-64 64-64h81.856l177.408-468.224c8.768-26.176 33.152-43.776 60.8-43.776h384c27.648 0 51.968 17.6 60.736 43.776l127.936 320c6.528 19.456 3.264 40.96-8.768 57.6z" />
<glyph unicode="&#x5d;" d="M996.48 271.872c-46.656 51.264-156.224 79.936-212.224 133.312 5.76 9.152 16.896 19.84 27.008 57.088 7.936 4.928 15.104 14.464 21.632 30.656s9.728 33.344 9.728 52.416c0 19.008-3.968 31.488-11.904 37.824-0.704 21.184-2.368 40.256-4.864 57.536s-8.768 31.872-18.88 43.84c-11.52 13.376-27.2 26.112-46.976 32.448-19.84 6.336-56 12.352-56 12.352s-36.16-6.016-55.936-12.416c-19.328-6.144-34.56-17.216-45.952-30.144 7.616-16.832 12.16-36.416 12.16-59.904 0-30.72-5.44-60.032-16.256-86.976-6.848-17.152-15.104-30.912-24.384-42.624 0.576-1.728 0.832-3.584 1.536-5.312 6.464-16.256 13.696-26.816 21.632-31.744 0.768-2.88 1.6-4.8 2.368-7.424 12.544-6.784 25.472-13.44 38.272-20.096 53.312-27.584 108.416-56.128 144.896-96.192 50.176-55.104 50.368-129.472 49.728-145.984v-62.528h192v64c-1.536 0 3.072 46.144-27.584 79.872zM768 64v128c0 0 3.776 60.992-33.024 101.44-56 61.568-187.52 98.688-254.656 162.816 6.912 10.944 20.224 25.152 32.32 69.952 9.536 5.952 18.112 18.048 25.92 37.504s11.648 40.32 11.648 63.232c0 22.848-4.736 37.952-14.272 45.568-0.832 25.408-2.816 48.384-5.888 69.12-2.88 20.672-10.432 38.208-22.528 52.544-13.824 16.128-32.64 31.424-56.384 38.976-23.808 7.616-67.136 14.848-67.136 14.848s-43.328-7.232-67.136-14.848c-23.744-7.552-42.56-21.184-56.384-37.248-12.096-14.4-19.648-32.832-22.656-53.568s-4.992-44.224-5.824-69.632c-9.536-7.616-14.272-23.040-14.272-45.888s3.904-44.16 11.648-63.616 16.448-32.192 25.984-38.080c12.096-44.736 25.472-60.16 32.384-71.104-67.2-64.064-198.656-98.944-254.656-160.512-36.864-40.512-33.088-101.504-33.088-101.504v-128h768z" />
<glyph unicode="&#x5e;" d="M960 64c0 0 4.416 76.48-38.528 123.712-65.344 71.808-218.752 117.824-297.088 192.576 8.064 12.8 23.68 30.72 37.76 82.944 11.072 6.912 21.184 21.696 30.272 44.416s13.632 47.424 13.632 74.112c0 26.624-5.504 44.416-16.64 53.312-0.96 29.632-3.264 56.512-6.848 80.704-3.52 24.192-12.288 44.672-26.432 61.44-16.128 18.752-38.080 32.576-65.792 41.472-27.776 8.896-53.696 13.312-77.888 13.312-0.128 0-51.008-4.416-78.784-13.312-27.712-8.896-49.664-22.72-65.792-41.472-14.080-16.768-22.912-37.312-26.432-61.44-3.52-24.256-5.824-51.136-6.784-80.768-11.072-8.896-16.64-26.688-16.64-53.312 0-26.688 4.544-51.392 13.632-74.112s19.136-37.504 30.272-44.416c14.144-52.224 29.696-70.144 37.76-82.944-78.4-74.752-231.808-120.768-297.088-192.576-43.008-47.168-38.592-123.648-38.592-123.648h896z" />
<glyph unicode="&#x5f;" d="M1024 128c0-12.8-4.992-24.896-14.080-33.92l-144.064-144c-9.088-9.088-21.12-14.080-33.92-14.080s-24.896 4.992-33.92 14.080c-18.688 18.688-18.688 49.216 0 67.904l62.080 62.080h-252.096c-26.432 0-48 21.568-48 48s21.568 48 48 48h252.096l-62.080 62.080c-18.688 18.688-18.688 49.216 0 67.904 9.088 8.96 21.184 13.952 33.984 13.952s24.896-4.992 33.92-14.080l144-144c9.088-9.024 14.080-21.12 14.080-33.92zM384 96c0 161.856 109.376 297.792 258.112 338.944 9.6 14.656 26.176 36.672 41.472 93.312 12.672 7.872 24.192 25.344 34.56 51.328s15.552 54.464 15.552 84.992c0 30.4-6.336 50.88-19.008 61.056-1.152 33.856-3.776 64.64-7.808 92.352-3.968 27.584-14.080 51.072-30.208 70.272-18.432 21.44-43.52 41.856-75.2 51.968s-89.472 19.776-89.472 19.776c-0.192 0-57.792-9.664-89.472-19.84-31.744-10.048-56.768-28.224-75.2-49.664-16.128-19.136-26.176-43.712-30.208-71.36s-6.656-58.944-7.808-92.8c-12.672-10.176-19.008-30.784-19.008-61.248s5.184-58.88 15.552-84.8 21.888-42.944 34.56-50.816c16.128-59.712 33.984-80.192 43.2-94.848-89.536-85.44-264.896-142.656-339.584-224.704-49.088-53.952-41.664-81.92-44.032-145.92h385.6c-0.96 10.56-1.6 21.184-1.6 32z" />
<glyph unicode="&#x60;" d="M1024 128c0-26.432-21.568-48-48-48h-252.096l62.080-62.080c18.688-18.688 18.688-49.216 0-67.904-9.088-9.024-21.184-14.016-33.984-14.016s-24.896 4.992-33.92 14.080l-144 144c-9.088 9.024-14.080 21.12-14.080 33.92s4.992 24.896 14.080 33.92l144.064 144c9.088 9.088 21.12 14.080 33.92 14.080s24.896-4.992 33.92-14.080c18.688-18.688 18.688-49.216 0-67.904l-62.080-62.080h252.032c26.496 0.064 48.064-21.504 48.064-47.936zM384 96c0 161.856 109.376 297.792 258.112 338.944 9.6 14.656 26.176 36.672 41.472 93.312 12.672 7.872 24.192 25.344 34.56 51.328s15.552 54.464 15.552 84.992c0 30.4-6.336 50.88-19.008 61.056-1.152 33.856-3.776 64.64-7.808 92.352-3.968 27.584-14.080 51.072-30.208 70.272-18.432 21.44-43.52 41.856-75.2 51.968s-89.792 19.776-89.984 19.776c-27.584 0-57.28-9.664-88.96-19.84-31.744-10.048-56.768-28.224-75.2-49.664-16.128-19.136-26.176-43.712-30.208-71.36s-6.656-58.944-7.808-92.8c-12.672-10.176-19.008-30.784-19.008-61.248s5.184-58.88 15.552-84.8 21.888-42.944 34.56-50.816c16.128-59.712 33.984-80.192 43.2-94.848-89.536-85.44-264.896-142.656-339.584-224.704-49.088-53.952-41.664-81.92-44.032-145.92h385.6c-0.96 10.56-1.6 21.184-1.6 32z" />
<glyph unicode="&#x61;" d="M512 896c-247.040 0-448-200.96-448-448s200.96-448 448-448c247.040 0 448 200.96 448 448s-200.96 448-448 448zM658.624 384l-0.128 0.128c-16.768-38.272-48-68.672-86.912-84.352l0.128-0.128-315.712-107.648c0 0 108.032 316.736 109.184 319.232l0.192 0.768 0.064-0.128c16.768 38.336 48.128 68.736 87.040 84.352l315.52 107.776-109.376-320zM512 544c52.928 0 96-43.072 96-96s-43.072-96-96-96-96 43.072-96 96 43.072 96 96 96z" />
<glyph unicode="&#x62;" d="M768 512h-192v192c0 35.392-28.672 64-64 64s-64-28.608-64-64v-192h-192c-35.328 0-64-28.608-64-64s28.672-64 64-64h192v-192c0-35.392 28.672-64 64-64s64 28.608 64 64v192h192c35.328 0 64 28.608 64 64s-28.672 64-64 64z" />
<glyph unicode="&#x63;" d="M512 896c-247.488 0-448-200.576-448-448s200.512-448 448-448c247.424 0 448 200.576 448 448s-200.576 448-448 448zM768 384h-192v-192c0-35.392-28.608-64-64-64s-64 28.608-64 64v192h-192c-35.392 0-64 28.608-64 64s28.608 64 64 64h192v192c0 35.392 28.608 64 64 64s64-28.608 64-64v-192h192c35.392 0 64-28.608 64-64s-28.608-64-64-64z" />
<glyph unicode="&#x64;" d="M828.8 764.736c-175.040 175.040-458.624 174.976-633.536 0-174.912-174.912-175.040-458.56 0-633.6 174.912-174.912 458.624-174.912 633.536 0 174.912 175.040 174.912 458.688 0 633.6zM761.408 297.856c13.248-13.184 20.544-30.848 20.544-49.664 0.064-18.88-7.232-36.544-20.48-49.728-13.184-13.248-30.848-20.48-49.6-20.48h-0.064c-18.816 0-36.48 7.296-49.728 20.608l-150.080 149.952-150.144-150.016c-13.248-13.312-30.912-20.608-49.728-20.608s-36.48 7.232-49.664 20.48c-13.248 13.248-20.48 30.848-20.48 49.728 0 18.816 7.296 36.48 20.608 49.664l149.952 150.208-149.952 150.080c-13.312 13.184-20.672 30.848-20.672 49.664 0 18.88 7.232 36.48 20.48 49.728 13.184 13.248 30.784 20.48 49.664 20.48 18.816 0 36.48-7.232 49.728-20.544l150.208-149.952 150.080 150.016c13.248 13.312 30.912 20.544 49.728 20.544 18.88 0 36.48-7.232 49.664-20.48 13.248-13.184 20.544-30.848 20.48-49.728 0-18.816-7.296-36.48-20.544-49.664l-149.952-150.144 149.952-150.144z" />
<glyph unicode="&#x65;" d="M828.8 764.8c-175.040 175.040-458.624 174.976-633.6 0-174.912-174.912-175.040-458.56 0-633.536 174.976-174.912 458.624-174.912 633.6 0s174.976 458.56 0 633.536zM489.856 205.312c-14.464-14.528-33.664-22.528-54.272-22.528s-39.808 8-54.336 22.528l-159.936 160c-14.528 14.464-22.464 33.728-22.464 54.272s7.936 39.808 22.528 54.272c14.4 14.464 33.664 22.464 54.208 22.464s39.808-8 54.336-22.528l105.664-105.6 258.624 258.496c14.464 14.528 33.664 22.528 54.272 22.528s39.808-8 54.336-22.528c14.528-14.464 22.464-33.728 22.464-54.272s-7.936-39.808-22.528-54.272l-312.896-312.832z" />
<glyph unicode="&#x66;" d="M896 640h-768c-35.328 0-64 28.608-64 64s28.672 64 64 64h768c35.328 0 64-28.608 64-64s-28.672-64-64-64zM960 448c0 35.392-28.672 64-64 64h-768c-35.328 0-64-28.608-64-64s28.672-64 64-64h768c35.328 0 64 28.608 64 64zM960 192c0 35.392-28.672 64-64 64h-768c-35.328 0-64-28.608-64-64s28.672-64 64-64h768c35.328 0 64 28.608 64 64z" />
<glyph unicode="&#x67;" d="M896 512h-320v320c0 35.392-28.672 64-64 64s-64-28.608-64-64v-320h-320c-35.328 0-64-28.608-64-64s28.672-64 64-64h320v-320c0-35.392 28.672-64 64-64s64 28.608 64 64v320h320c35.328 0 64 28.608 64 64s-28.672 64-64 64z" />
<glyph unicode="&#x68;" d="M602.496 448l210.752 210.752c25.024 25.024 25.024 65.472 0 90.496s-65.472 25.024-90.496 0l-210.752-210.752-210.752 210.752c-25.024 25.024-65.472 25.024-90.496 0s-25.024-65.472 0-90.496l210.752-210.752-210.752-210.752c-25.024-25.024-25.024-65.472 0-90.496 12.48-12.48 28.864-18.752 45.248-18.752s32.768 6.272 45.248 18.752l210.752 210.752 210.752-210.752c12.48-12.48 28.864-18.752 45.248-18.752s32.768 6.272 45.248 18.752c25.024 25.024 25.024 65.472 0 90.496l-210.752 210.752z" />
<glyph unicode="&#x69;" d="M384 128c-16.384 0-32.768 6.272-45.248 18.752l-192 192c-25.024 25.024-25.024 65.472 0 90.496s65.472 25.024 90.496 0l146.752-146.752 402.752 402.752c25.024 25.024 65.472 25.024 90.496 0s25.024-65.472 0-90.496l-448-448c-12.48-12.48-28.864-18.752-45.248-18.752z" />
<glyph unicode="&#x6a;" d="M480 512l185.344-185.344c12.48-12.48 32.768-12.48 45.248 0s12.48 32.768 0 45.248l-208 208c-6.208 6.208-14.4 9.344-22.592 9.344s-16.384-3.136-22.656-9.344l-208-208c-12.48-12.48-12.48-32.768 0-45.248s32.768-12.48 45.248 0l185.408 185.344z" />
<glyph unicode="&#x6b;" d="M480 384l-185.344 185.344c-12.48 12.48-32.768 12.48-45.248 0s-12.48-32.768 0-45.248l208-208c6.272-6.272 14.464-9.344 22.656-9.344s16.384 3.136 22.656 9.344l208 208c12.48 12.48 12.48 32.768 0 45.248s-32.768 12.48-45.248 0l-185.472-185.344z" />
<glyph unicode="&#x6c;" d="M384 480l185.344 185.344c12.48 12.48 12.48 32.768 0 45.248s-32.768 12.48-45.248 0l-208-208c-6.208-6.208-9.344-14.4-9.344-22.592s3.136-16.384 9.344-22.656l208-208c12.48-12.48 32.768-12.48 45.248 0s12.48 32.768 0 45.248l-185.344 185.408z" />
<glyph unicode="&#x6d;" d="M576 480l-185.344-185.344c-12.48-12.48-12.48-32.768 0-45.248s32.768-12.48 45.248 0l208 208c6.272 6.272 9.344 14.464 9.344 22.656s-3.136 16.384-9.344 22.656l-208 208c-12.48 12.48-32.768 12.48-45.248 0s-12.48-32.768 0-45.248l185.344-185.472z" />
<glyph unicode="&#x6e;" d="M768 320h-512l256 256z" />
<glyph unicode="&#x6f;" d="M256 576h512l-256-256z" />
<glyph unicode="&#x70;" d="M640 704v-512l-256 256z" />
<glyph unicode="&#x71;" d="M384 192v512l256-256z" />
<glyph unicode="&#x72;" d="M502.592 771.904c-6.208 6.208-14.4 9.344-22.592 9.344s-16.384-3.136-22.656-9.344l-208-208c-12.48-12.48-12.48-32.768 0-45.248s32.768-12.48 45.248 0l153.408 153.344v-512c0-17.664 14.336-32 32-32s32 14.336 32 32v512l153.344-153.344c12.48-12.48 32.768-12.48 45.248 0s12.48 32.768 0 45.248l-208 208z" />
<glyph unicode="&#x73;" d="M457.344 124.096c6.272-6.272 14.464-9.344 22.656-9.344s16.384 3.136 22.656 9.344l208 208c12.48 12.48 12.48 32.768 0 45.248s-32.768 12.48-45.248 0l-153.408-153.344v512c0 17.664-14.336 32-32 32s-32-14.336-32-32v-512l-153.344 153.344c-12.48 12.48-32.768 12.48-45.248 0s-12.48-32.768 0-45.248l207.936-208z" />
<glyph unicode="&#x74;" d="M188.096 438.656c-6.208-6.272-9.344-14.464-9.344-22.656s3.136-16.384 9.344-22.656l208-208c12.48-12.48 32.768-12.48 45.248 0s12.48 32.768 0 45.248l-153.344 153.408h512c17.664 0 32 14.336 32 32s-14.336 32-32 32h-512l153.344 153.344c12.48 12.48 12.48 32.768 0 45.248s-32.768 12.48-45.248 0l-208-207.936z" />
<glyph unicode="&#x75;" d="M835.904 457.344c6.272 6.272 9.344 14.464 9.344 22.656s-3.136 16.384-9.344 22.656l-208 208c-12.48 12.48-32.768 12.48-45.248 0s-12.48-32.768 0-45.248l153.344-153.408h-512c-17.664 0-32-14.336-32-32s14.336-32 32-32h512l-153.344-153.344c-12.48-12.48-12.48-32.768 0-45.248s32.768-12.48 45.248 0l208 207.936z" />
<glyph unicode="&#x76;" d="M557.248 813.184c-12.48 12.48-28.864 18.752-45.248 18.752s-32.768-6.272-45.248-18.752l-320-320c-25.024-25.024-25.024-65.472 0-90.496s65.472-25.024 90.496 0l210.752 210.752v-549.44c0-35.392 28.608-64 64-64s64 28.608 64 64v549.44l210.752-210.752c25.024-25.024 65.472-25.024 90.496 0s25.024 65.472 0 90.496l-320 320z" />
<glyph unicode="&#x77;" d="M466.752 18.816c12.48-12.48 28.864-18.752 45.248-18.752s32.768 6.272 45.248 18.752l320 320c25.024 25.024 25.024 65.472 0 90.496s-65.472 25.024-90.496 0l-210.752-210.752v549.44c0 35.392-28.608 64-64 64s-64-28.608-64-64v-549.44l-210.752 210.752c-25.024 25.024-65.472 25.024-90.496 0s-25.024-65.472 0-90.496l320-320z" />
<glyph unicode="&#x78;" d="M82.816 493.248c-12.48-12.48-18.752-28.864-18.752-45.248s6.272-32.768 18.752-45.248l320-320c25.024-25.024 65.472-25.024 90.496 0s25.024 65.472 0 90.496l-210.752 210.752h549.44c35.392 0 64 28.608 64 64s-28.608 64-64 64h-549.44l210.752 210.752c25.024 25.024 25.024 65.472 0 90.496s-65.472 25.024-90.496 0l-320-320z" />
<glyph unicode="&#x79;" d="M877.184 402.752c12.48 12.48 18.752 28.864 18.752 45.248s-6.272 32.768-18.752 45.248l-320 320c-25.024 25.024-65.472 25.024-90.496 0s-25.024-65.472 0-90.496l210.752-210.752h-549.44c-35.392 0-64-28.608-64-64s28.608-64 64-64h549.44l-210.752-210.752c-25.024-25.024-25.024-65.472 0-90.496s65.472-25.024 90.496 0l320 320z" />
<glyph unicode="&#x7a;" d="M847.488 267.008c0-16.384-6.272-32.768-18.752-45.248-25.024-25.024-65.472-25.024-90.496 0l-226.24 226.24-226.24-226.24c-25.024-25.024-65.472-25.024-90.496 0s-25.024 65.472 0 90.496l271.488 271.488c25.024 25.024 65.472 25.024 90.496 0l271.488-271.488c12.544-12.48 18.752-28.864 18.752-45.248z" />
<glyph unicode="&#x7b;" d="M176.512 564.992c0 16.384 6.272 32.768 18.752 45.248 25.024 25.024 65.472 25.024 90.496 0l226.24-226.24 226.24 226.24c25.024 25.024 65.472 25.024 90.496 0s25.024-65.472 0-90.496l-271.488-271.488c-25.024-25.024-65.472-25.024-90.496 0l-271.488 271.488c-12.544 12.48-18.752 28.864-18.752 45.248z" />
<glyph unicode="&#x7c;" d="M647.744 779.776c16.384 0 32.768-6.272 45.248-18.752 25.024-25.024 25.024-65.472 0-90.496l-226.24-226.24 226.24-226.24c25.024-25.024 25.024-65.472 0-90.496s-65.472-25.024-90.496 0l-271.488 271.488c-25.024 25.024-25.024 65.472 0 90.496l271.488 271.488c12.48 12.544 28.864 18.752 45.248 18.752z" />
<glyph unicode="&#x7d;" d="M376.256 115.2c-16.384 0-32.768 6.272-45.248 18.752-25.024 25.024-25.024 65.472 0 90.496l226.24 226.24-226.24 226.24c-25.024 25.024-25.024 65.472 0 90.496s65.472 25.024 90.496 0l271.488-271.488c25.024-25.024 25.024-65.472 0-90.496l-271.488-271.488c-12.48-12.48-28.864-18.752-45.248-18.752z" />
<glyph unicode="&#x7e;" d="M486.976 581.504c1.984-4.992 3.008-10.176 3.008-15.488s-0.96-10.496-3.008-15.488-4.992-9.536-8.96-13.504-8.512-7.040-13.504-9.024-10.176-3.008-15.488-3.008c-5.376 0-10.496 1.024-15.488 3.008s-9.536 4.992-13.568 9.024l-92.992 92.992v-388.992c0-5.312-1.024-10.496-3.008-15.488s-4.864-9.344-8.448-13.056c-3.712-3.712-8-6.528-12.992-8.512s-10.176-3.008-15.488-3.008c-5.376 0-10.496 1.024-15.488 3.008s-9.344 4.8-12.992 8.512c-3.712 3.712-6.528 8-8.512 12.992s-3.008 10.176-3.008 15.488v389.056l-93.056-92.992c-3.968-4.032-8.512-7.040-13.504-9.024s-10.176-3.008-15.488-3.008c-5.376 0-10.496 1.024-15.488 3.008s-9.536 4.992-13.504 9.024-6.976 8.448-9.024 13.504-3.008 10.176-3.008 15.488 1.024 10.496 3.008 15.488 5.056 9.472 9.024 13.504l161.984 161.984c1.984 1.984 4.096 3.712 6.528 4.992 2.304 1.344 4.608 2.496 6.976 3.52 2.304 1.024 4.8 1.664 7.488 1.984 2.624 0.32 5.312 0.512 8 0.512 2.624 0 5.312-0.192 8-0.512 2.624-0.32 5.12-1.024 7.488-1.984 2.304-1.024 4.608-2.176 6.976-3.52 2.304-1.344 4.48-3.008 6.528-4.992l161.984-161.984c4.032-4.032 7.040-8.512 9.024-13.504zM664 172.992c1.984-1.984 4.096-3.712 6.528-4.992 2.304-1.344 4.608-2.496 6.976-3.52 2.304-1.024 4.8-1.664 7.488-1.984 2.624-0.32 5.312-0.512 8-0.512 2.624 0 5.312 0.192 8 0.512 2.624 0.32 5.12 1.024 7.488 1.984 2.304 1.024 4.608 2.176 6.976 3.52 2.304 1.344 4.48 3.008 6.528 4.992l161.984 161.984c3.968 3.968 6.976 8.512 9.024 13.504s3.008 10.176 3.008 15.552-1.024 10.496-3.008 15.488-4.992 9.472-9.024 13.504-8.448 6.976-13.44 8.96-10.176 3.008-15.488 3.008c-5.376 0-10.496-1.024-15.488-3.008s-9.472-4.992-13.504-9.024l-92.992-92.992v388.032c0 5.312-1.024 10.496-3.008 15.488s-4.864 9.344-8.512 12.992c-3.712 3.712-8 6.528-12.992 8.512s-10.176 3.008-15.488 3.008c-5.376 0-10.496-1.024-15.488-3.008s-9.344-4.8-12.992-8.512c-3.712-3.712-6.528-8-8.512-12.992s-3.008-10.176-3.008-15.488v-388.992l-93.056 92.992c-3.968 4.032-8.512 6.976-13.504 9.024s-10.176 2.944-15.488 2.944c-5.376 0-10.496-1.024-15.488-3.008s-9.536-4.928-13.504-8.96-7.040-8.512-9.024-13.504-3.008-10.176-3.008-15.488 1.024-10.496 3.008-15.488 4.992-9.472 9.024-13.504l161.984-161.984v0.96z" />
<glyph unicode="&#xa1;" d="M736 481.984l-352-352-256-64 64 256 352 352 192-192zM857.984 796.032c12.608-12.672 22.144-27.008 28.48-43.008s9.536-32.32 9.536-49.024-3.2-33.024-9.472-49.024c-6.4-16-15.872-30.336-28.48-43.008l-58.048-67.968-192 192 67.968 57.984c12.608 12.672 27.008 22.208 43.008 28.48s32.32 9.536 49.024 9.536c16.64 0 33.024-3.2 49.024-9.472s30.336-15.808 43.008-28.48l-2.048 1.984z" />
<glyph unicode="&#xa2;" d="M798.080 66.752h-571.456c-88.32 0-124.224 62.592-79.104 138.944l285.248 491.392c44.224 76.416 116.864 76.416 161.024 0l284.352-491.392c45.056-76.352 8.32-138.944-80.064-138.944zM576 576h-128v-256h128v256zM576 256h-128v-64h128v64z" />
</font>
</defs>
</svg>
